M48
;DRILL file {KiCad 5.0.2+dfsg1-1} date Sat 03 Oct 2020 00:28:49 BST
;FORMAT={2:4/ absolute / inch / suppress trailing zeros}
FMAT,2
INCH,LZ
T1C0.0157
T2C0.0276
T3C0.0315
T4C0.0354
T5C0.0394
T6C0.1260
%
G90
G05
T1
X05416Y-03872
X057023Y-024022
X05749Y-03285
X0576Y-01889
X05818Y-03279
X05825Y-0319
X05828Y-03036
X05848Y-01682
X05875Y-03271
X058795Y-03019
X05888Y-03912
X05895Y-03182
X05904Y-00944
X05946Y-03031
X06014Y-02998
X060638Y-032072
X0607Y-03037
X0611Y-03185
X06128Y-00997
X06132Y-0336
X06179Y-021285
X06192Y-01364
X06192Y-01594
X06208Y-01128
X06248Y-01734
X06308Y-016396
X06342Y-03872
X06366Y-02337
X06366Y-02413
X063745Y-021055
X06406Y-01126
X064173Y-009646
X06488Y-01136
X06502Y-01868
X06503Y-01994
X06544Y-01676
X06568Y-01136
X06628Y-01136
X06638Y-01366
X06654Y-01308
X06692Y-01138
X067126Y-022244
X06736Y-01138
X06737Y-03302
X067415Y-02062
X067425Y-018725
X06752Y-019227
X067625Y-01994
X067717Y-022047
X067758Y-020758
X06802Y-01488
X06802Y-03872
X0681Y-02493
X06821Y-02424
X0683Y-01138
X068307Y-020177
X06834Y-01546
X06848Y-02148
X0686Y-01488
X068823Y-021138
X0692Y-01132
X06965Y-01601
X069783Y-019227
X070079Y-018742
X070177Y-019291
X070965Y-018406
X071687Y-014267
X071695Y-01045
X07263Y-03871
X07282Y-01328
X07286Y-01136
X074016Y-009646
X074016Y-010236
X07402Y-0107
X07464Y-02834
X0756Y-01302
X07646Y-01303
X0769Y-01056
X07724Y-01749
X07725Y-03867
X0774Y-013854
X07742Y-01326
X077824Y-013932
X07784Y-01337
X077953Y-015059
X07815Y-02985
X078619Y-017649
X079795Y-014965
X07989Y-01544
X08017Y-01082
X080235Y-01569
X080413Y-016043
X08042Y-01275
X08077Y-014062
X080887Y-014413
X081004Y-014764
X081025Y-015333
X08138Y-01752
X0819Y-03872
X082283Y-01565
X08244Y-01752
X08262Y-00598
X083197Y-024223
X084055Y-015945
X084646Y-015846
X08501Y-01727
X085436Y-016984
X08659Y-03871
X08686Y-02569
X087894Y-027362
X0879Y-025527
T3
X07193Y-01951
X07193Y-02551
X07293Y-01951
X07293Y-02551
X07393Y-01951
X07393Y-02551
X07493Y-01951
X07493Y-02551
X07593Y-01951
X07593Y-02551
X07693Y-01951
X07693Y-02551
X07793Y-01951
X07793Y-02551
X07893Y-01951
X07893Y-02551
X07993Y-01951
X07993Y-02551
X08093Y-01951
X08093Y-02551
X08193Y-01951
X08193Y-02551
X08293Y-01951
X08293Y-02551
T4
X077165Y-027953
X078165Y-027953
T5
X08505Y-02426
X08505Y-02526
X05514Y-022875
X05514Y-023875
X05514Y-024875
X05514Y-025875
X073046Y-03642
X074046Y-03642
X059211Y-03642
X060211Y-03642
X08688Y-03642
X08788Y-03642
X06062Y-01344
X06062Y-01444
X06062Y-01544
X06062Y-01644
X068434Y-03642
X069434Y-03642
X090181Y-02069
X090181Y-02169
X090191Y-01783
X090191Y-01883
X077657Y-03642
X078657Y-03642
X082269Y-03642
X083269Y-03642
X09019Y-02323
X09019Y-02423
X09019Y-02523
X063823Y-03642
X064823Y-03642
X066467Y-031092
X066467Y-032092
X067467Y-031092
X067467Y-032092
X068467Y-031092
X068467Y-032092
X069467Y-031092
X069467Y-032092
X070467Y-031092
X070467Y-032092
X071467Y-031092
X071467Y-032092
X072467Y-031092
X072467Y-032092
X073467Y-031092
X073467Y-032092
X074467Y-031092
X074467Y-032092
X075467Y-031092
X075467Y-032092
X076467Y-031092
X076467Y-032092
X077467Y-031092
X077467Y-032092
X078467Y-031092
X078467Y-032092
X079467Y-031092
X079467Y-032092
X080467Y-031092
X080467Y-032092
X081467Y-031092
X081467Y-032092
X082467Y-031092
X082467Y-032092
X083467Y-031092
X083467Y-032092
X084467Y-031092
X084467Y-032092
X085467Y-031092
X085467Y-032092
X0546Y-03642
X0556Y-03642
X052992Y-009134
X052992Y-010134
T6
X089843Y-005984
X053386Y-04252
X089843Y-04252
X053346Y-006024
T2
X08582Y-012465G85X08582Y-012583
G05
X08582Y-013252G85X08582Y-01337
G05
X08582Y-014039G85X08582Y-014157
G05
T5
X087139Y-012189G85X086942Y-012189
G05
X089461Y-014571G85X089264Y-014571
G05
X089501Y-011972G85X089304Y-011972
G05
X0908Y-014571G85X090603Y-014571
G05
X090879Y-011795G85X090682Y-011795
G05
T0
M30
